<?xml version="1.0" encoding="UTF-8"?>
<svg id="Capa_1" data-name="Capa 1" xmlns="http://www.w3.org/2000/svg" version="1.1" viewBox="0 0 1584.3 246.4">
  <defs>
    <style>
      .cls-1 {
        fill: white;
        stroke-width: 0px;
      }

      .cls-2 {
        fill: none;
        stroke: white;
        stroke-miterlimit: 10;
        stroke-width: 3px;
      }
    </style>
  </defs>
  <g>
    <path class="cls-1" d="M1097.7,62.6h.4c3.1,5.9,8.2,9.1,15,9.1,11.9,0,19.1-9.5,19.1-25.5s-7.2-25.5-19.1-25.5-11.9,3.1-15,9.1h-.4V.8h-7.5v69.8h7.5v-7.9h0ZM1097.7,37.5c0-6.5,5.8-10,12.5-10s13.9,5.8,13.9,14.6v8.3h0c0,8.8-5.1,14.6-13.9,14.6s-12.5-3.5-12.5-10v-17.5Z"/>
    <path class="cls-1" d="M721,217.7h217.1V.7h-217.1v217.1h0ZM764.4,66.5c0-1.4.7-2.7,1.9-3.3l73.6-42.7c1.2-.7,2.7-.7,3.9,0l37.5,21.5c1.8,1.1,2.4,3.5,1.3,5.3-1.1,1.8-3.4,2.4-5.2,1.4l-35.6-20.4-69.8,40.5v81l69.7,40.5,40.7-23.5-16.4-9.9-22.3,13c-1.2.7-2.7.7-3.9,0l-48-28.8c-1.2-.7-1.9-2-1.9-3.3v-56.9c0-1.4.7-2.7,1.9-3.3l48-27.8c1.8-1.1,4.2-.4,5.3,1.4,1.1,1.8.4,4.2-1.4,5.3l-46,26.7v52.5l44.1,26.5,16.7-9.8-18.7-11.3c-1.2-.7-1.9-2-1.9-3.3v-27.8c0-1.4.7-2.6,1.9-3.3l49.4-29.1c1.2-.7,2.7-.7,3.9,0s1.9,2,1.9,3.3v56.9c0,1.4-.7,2.6-1.9,3.3l-19.4,11.4,18.4,11.1c1.2.7,1.9,2,1.9,3.3s-.7,2.6-1.9,3.3l-48.3,27.8c-.6.3-1.3.5-1.9.5h0c-.7,0-1.3-.2-1.9-.5l-73.6-42.7c-1.2-.7-1.9-2-1.9-3.3v-85.4h0Z"/>
    <polygon class="cls-1" points="1018.4 63.7 987.2 63.7 987.2 4.7 979.3 4.7 979.3 70.6 1018.4 70.6 1018.4 63.7"/>
    <polygon class="cls-1" points="887.4 87.5 845.7 112 845.7 135.5 866.2 147.8 887.4 135.5 887.4 87.5"/>
    <path class="cls-1" d="M1278.1,42.7c-14.6,0-20.9,5-20.9,14.2s6.5,14.8,16.7,14.8,12.5-3.5,14.6-9.1h.5c.6,4.5,2.8,7.9,8.7,7.9h5.2v-6.6h-6.8v-26.8c0-10.3-7.3-16.4-18.7-16.4s-16.1,4.7-18.6,9.8l5.1,3.8c2.5-4.4,6.5-7.2,13-7.2s11.6,3.7,11.6,10.8v4.8h-10.4,0ZM1288.5,56.4h0c0,5-5.6,9-13.3,9s-10.1-2.6-10.1-7.6v-2c0-4.7,4.1-7.4,13-7.4h10.4v8Z"/>
    <polygon class="cls-1" points="1528.9 64.1 1512.4 64.1 1512.4 21.9 1487.3 21.9 1487.3 28.3 1504.9 28.3 1504.9 64.1 1487.3 64.1 1487.3 70.6 1528.9 70.6 1528.9 64.1"/>
    <path class="cls-1" d="M1562.2,71.7c13.7,0,22.1-10,22.1-25.5s-8.4-25.5-22.1-25.5-22.1,10-22.1,25.5,8.4,25.5,22.1,25.5ZM1548.2,42.7c0-10.5,5.7-15.5,14.1-15.5s14.1,5,14.1,15.5v7c0,10.5-5.7,15.5-14.1,15.5s-14.1-5-14.1-15.5c0,0,0-7,0-7Z"/>
    <path class="cls-1" d="M1545.9,137.6c-23.9,0-38.4,15.3-38.4,40s14.5,40,38.4,40,38.4-15.3,38.4-40-14.5-40-38.4-40ZM1561.6,183.8c0,11.3-5.9,17.7-15.7,17.7s-15.7-6.4-15.7-17.7v-12.2c0-11.3,5.9-17.7,15.7-17.7s15.7,6.4,15.7,17.7v12.2Z"/>
    <path class="cls-1" d="M1442.3,64.1h-14.2v6.4h40.7v-6.4h-18.9v-21c0-7.5,5-13.7,14.5-13.7h9.1v-7.5h-6.8c-10.2,0-14.5,5.8-16.4,12.3h-.5v-12.3h-21.8v6.4h14.2v35.8h.1Z"/>
    <path class="cls-1" d="M1380.8,189.7c0,7.4-6.7,11.1-13.5,11.1s-12.9-5.2-12.9-14.8v-46.6h-21.9v49.5c0,18.5,10.2,28.8,24.9,28.8s19.1-7.1,22.5-15.7h.9v13.9h21.9v-76.5h-21.9v50.3Z"/>
    <path class="cls-1" d="M1392.5,20.8c-13.7,0-22.1,10-22.1,25.5s8.4,25.5,22.1,25.5,22.1-10,22.1-25.5-8.4-25.5-22.1-25.5ZM1406.5,49.7c0,10.5-5.7,15.5-14.1,15.5s-14.1-5-14.1-15.5v-7c0-10.5,5.7-15.5,14.1-15.5s14.1,5,14.1,15.5v7Z"/>
    <path class="cls-1" d="M1508.7,11.1c4.3,0,5.9-2.1,5.9-4.8v-1.5C1514.6,2.1,1513,0,1508.7,0s-5.9,2.1-5.9,4.8v1.5c0,2.7,1.6,4.8,5.9,4.8Z"/>
    <polygon class="cls-1" points="1157.3 216 1179.5 216 1179.5 172.7 1221.1 172.7 1221.1 154.4 1179.5 154.4 1179.5 130.7 1226 130.7 1226 112.4 1157.3 112.4 1157.3 216"/>
    <polygon class="cls-1" points="1289.9 106.2 1244.5 106.2 1244.5 123.2 1267.9 123.2 1267.9 198.9 1244.5 198.9 1244.5 215.9 1313.3 215.9 1313.3 198.9 1289.9 198.9 1289.9 106.2"/>
    <path class="cls-1" d="M1223.4,43.1c0-7.5,5-13.7,14.5-13.7h9.1v-7.5h-6.8c-10.2,0-14.5,5.8-16.4,12.3h-.5v-12.3h-21.8v6.4h14.2v35.8h-14.2v6.4h40.7v-6.4h-18.9v-21h.1Z"/>
    <path class="cls-1" d="M1338.2,70.6h19v-6.4h-22.2V28.3h22.2v-6.4h-22.2V4.7h-7.3v12.7c0,3.3-1.2,4.4-4.4,4.4h-12.1v6.4h16.2v31.1c0,6.5,3.4,11.1,10.8,11.1h0v.2Z"/>
    <path class="cls-1" d="M1071.2,70.6h5.2v-6.6h-6.8v-26.8c0-10.3-7.3-16.4-18.7-16.4s-16.1,4.7-18.6,9.8l5.1,3.8c2.5-4.4,6.5-7.2,13-7.2s11.6,3.7,11.6,10.8v4.8h-10.4c-14.6,0-20.9,5-20.9,14.2s6.5,14.8,16.7,14.8,12.5-3.5,14.6-9.1h.5c.6,4.5,2.8,7.9,8.7,7.9h0ZM1062.1,56.4h0c0,5-5.6,9-13.3,9s-10.1-2.6-10.1-7.6v-2c0-4.7,4.1-7.4,13-7.4h10.4v8Z"/>
    <path class="cls-1" d="M1466.4,104.6c-9.8,0-13.2,4.4-13.2,10.4v4.3c0,5.8,3.6,10.4,13.2,10.4s13.2-4.6,13.2-10.4v-4.3c0-5.9-3.4-10.4-13.2-10.4Z"/>
    <polygon class="cls-1" points="1001.5 172.7 1043.9 172.7 1043.9 154.4 1001.5 154.4 1001.5 130.7 1045.4 130.7 1045.4 112.4 979.3 112.4 979.3 216 979.3 216 1045.4 216 1045.4 197.7 1001.5 197.7 1001.5 172.7"/>
    <path class="cls-1" d="M1425.8,156.5h29.7v72.1h-29.4v17.1h28c15.7,0,23.3-9.2,23.3-22.1v-84.1h-51.6v17.1h0Z"/>
    <path class="cls-1" d="M1111.4,137.6c-12.3,0-19.1,7.1-22.5,15.7h-.9v-13.9h-21.9v76.5h22v-50.3c0-7.4,6.7-11.1,13.5-11.1s12.9,5.2,12.9,14.8v46.6h21.9v-49.5c0-18.5-10.2-28.8-24.9-28.8h0Z"/>
    <path class="cls-1" d="M1188.1,46.2c0-15.5-8.4-25.5-22.1-25.5s-22.1,10-22.1,25.5,8.4,25.5,22.1,25.5,22.1-10,22.1-25.5ZM1152,49.7v-7c0-10.5,5.7-15.5,14.1-15.5s14.1,5,14.1,15.5v7c0,10.5-5.7,15.5-14.1,15.5s-14.1-5-14.1-15.5Z"/>
  </g>
  <path class="cls-1" d="M143.6,190.5c-31.6,20.5-64.5,19.4-64.5,19.4,0,0-.9-4.2-.5-11.4s4.3-5.2,7.2-10.9c1-2.1,1.9-3.5,3.5-8.4,0-.2-1.9-34.8-2.4-49.5-.3-7.9-1.8-21.1-3.5-34-1-7.6-3.3-13.6-4.4-20.9-1.6-10.4-3.4-22.2-3.4-22.2-1.3,3.3-3.1,15.8-5,29.8-.9,6.7-1.8,13.8-2.6,20.5-1.8,14.1-6.2,51.7-6.8,53.8-1,3.1-1.1-.8-1.1-.8,0,0,2.6-39.5,3.4-56.8.4-8.5,1-17.8,2.1-26.7.8-6.7,1.8-13.2,3.2-19,0,0,4.5-13.7,6-13.9,1.4-.3,6.7,8.6,8.4,16.5,4,17.8,6.4,20.1,9.4,38.9,2.9,17.8,5.5,32.7,5.9,35.2,1.3,8.8.7,36.4-1.6,47.4-.5,3-.7,4.1-2.6,6.1-4.6,4.6-7.9,10.2-7.9,13.8s-.6,3.5.3,5.6c0,0,6,9.1,40.8-11.7,0,0,10.9-5.7,10.9-18.3V45.9s-34.5-11.7-61-11.7-59.8,11.6-59.8,11.6v126.5c0,7.8,1.1,22.4,12.3,27.4,0,0-29.6-10.1-29.6-27.5V35.1s45.2-8.3,77.2-8.3,78,8.3,78,8.3v137.3c0,11.8-11.6,18.1-11.6,18.1h-.3,0ZM573.2,84.3c-3.2,1.8-7.4,2.6-12.7,2.6s-9.6-1.6-12.5-4.9c-3-3.3-4.5-7.8-4.5-13.6s1.5-10.6,4.5-14c2.9-3.4,6.7-5,11.5-5s4,.2,5.5.7v-14.8h8.3v49h0ZM564.9,80.8v-26.3c-1.1-.3-2.3-.5-3.7-.5-6.4,0-9.6,4.6-9.6,13.9s3,13.7,9,13.7,3.4-.3,4.3-.8h0ZM610.9,67.7l-22.4,3.3c.7,6.8,4,10.2,10,10.2s6.6-.7,9.2-2l2,5.2c-3.1,1.7-7.1,2.6-12.1,2.6s-9.4-1.7-12.4-5-4.5-8-4.5-14.1,1.4-10.5,4.2-13.9,6.6-5,11.4-5,8.6,1.6,11.1,4.8,3.7,7.8,3.5,13.9h0ZM603.2,64.5c0-6.9-2.4-10.4-7.2-10.4s-4.5,1-5.8,3.1c-1.5,2.2-2.2,5.4-2.1,9.6l15.1-2.3h0ZM195,183.8h-13v-80.2h13v80.2ZM254.8,155.2c0,8.9-2,15.9-5.8,21.1-4.2,5.7-10.2,8.5-18,8.5s-13.7-2.8-18-8.5c-3.9-5.2-5.8-12.3-5.8-21.1s1.9-16,5.8-21.2c4.2-5.7,10.2-8.5,18-8.5s13.8,2.8,18,8.5c3.9,5.2,5.8,12.3,5.8,21.2ZM242,155.1c0-14.3-3.6-21.5-10.9-21.5s-10.9,7.2-10.9,21.5,3.6,20.9,10.9,20.9,10.9-7,10.9-20.9ZM299.3,167.3c0,4.8-1.9,8.9-5.6,12.3s-8.7,5.1-14.8,5.1-11.8-1.4-15.8-4.1l3.4-8.3c2.8,2.2,6.3,3.3,10.7,3.3s4.8-.8,6.4-2.3,2.4-3.5,2.4-5.8-.6-4.3-1.9-5.7-3.4-2.6-6.5-3.8c-8.7-3.3-13.1-8.7-13.1-16s1.7-8.6,5-11.8,7.7-4.8,13.1-4.8,10.8,1.3,14.9,4l-3.2,7.5c-2.6-2.1-5.7-3.2-9.1-3.2s-4.5.7-6,2.2-2.2,3.2-2.2,5.4c0,3.8,2.8,6.8,8.5,9,9.1,3.7,13.7,9.3,13.7,16.9h.1ZM394.9,183.8h-15.1l-6.1-20.4h-25.6l-6.4,20.4h-13.2l26.3-79.5h13.9l26.2,79.5h0ZM371.6,154.8l-8.2-28c-1.2-3.9-1.9-7.1-2.1-9.6h-.2c-.4,2.1-1.1,5.3-2.2,9.6l-8.5,28h21.3,0ZM448.3,183.8h-13v-40.6c0-6.4-3.4-9.6-10.3-9.6s-6.2.5-8.9,1.6v48.6h-13v-54.2c5.9-2.8,13.3-4.1,22.4-4.1s13.9,1.8,17.7,5.3c3.3,3,5,7,5,12.2v40.8h0ZM506.7,180.7c-5,2.8-11.6,4.1-20,4.1s-15-2.5-19.7-7.7c-4.7-5.1-7-12.2-7-21.4s2.3-16.5,7-22c4.5-5.2,10.6-7.9,18.1-7.9s6.2.4,8.6,1.1v-23.2h13v76.8h0v.2h0ZM493.8,175.2v-41.2c-1.7-.5-3.6-.7-5.7-.7-10.1,0-15.1,7.3-15.1,21.8s4.7,21.5,14.1,21.5,5.3-.4,6.7-1.3h0ZM565.8,154.7l-35.1,5.1c1.1,10.6,6.3,15.9,15.6,15.9s10.3-1.1,14.5-3.2l3.1,8.2c-4.9,2.7-11.2,4-18.9,4s-14.7-2.6-19.4-7.8-7.1-12.5-7.1-22.1,2.2-16.5,6.5-21.7,10.3-7.8,17.9-7.8,13.5,2.5,17.4,7.5,5.8,12.3,5.5,21.8h0ZM553.6,149.6c0-10.8-3.8-16.3-11.3-16.3s-7,1.6-9.1,4.8c-2.3,3.5-3.4,8.5-3.3,15.1l23.7-3.6h0ZM610.3,167.3c0,4.8-1.9,8.9-5.6,12.3-3.8,3.4-8.7,5.1-14.8,5.1s-11.8-1.4-15.8-4.1l3.4-8.3c2.8,2.2,6.4,3.3,10.8,3.3s4.8-.8,6.4-2.3c1.6-1.5,2.4-3.5,2.4-5.8s-.6-4.3-1.9-5.7c-1.3-1.4-3.4-2.6-6.5-3.8-8.7-3.3-13.1-8.7-13.1-16s1.7-8.6,5.1-11.8c3.4-3.2,7.7-4.8,13.1-4.8s10.8,1.3,14.9,4l-3.2,7.5c-2.6-2.1-5.7-3.2-9.1-3.2s-4.5.7-6,2.2c-1.4,1.4-2.2,3.2-2.2,5.4,0,3.8,2.8,6.8,8.5,9,9.1,3.7,13.7,9.3,13.7,16.9h-.1ZM250.4,86.4h-8.3v-25.9c0-4.1-2.2-6.1-6.6-6.1s-4,.3-5.7,1v31h-8.3v-34.6c3.8-1.8,8.5-2.6,14.3-2.6s8.9,1.1,11.3,3.4c2.1,1.9,3.2,4.5,3.2,7.8v26s.1,0,.1,0ZM268.2,39.4c0,1.1-.4,2.1-1.3,2.9s-2,1.2-3.2,1.2-2.3-.4-3.2-1.2c-.9-.8-1.3-1.8-1.3-2.9s.4-2.1,1.3-2.9,2-1.2,3.2-1.2,2.3.4,3.2,1.2,1.3,1.8,1.3,2.9ZM267.8,86.4h-8.3v-36.6h8.3v36.6ZM305.5,49.8l-11.7,36.6h-7.9l-11.9-36.6h8.8l6.4,23.6c.5,1.8.8,3.4.9,5h.1c.2-1.3.5-3,.9-5l6.6-23.6h7.8ZM340.1,67.9l-22.4,3.3c.7,6.8,4,10.2,10,10.2s6.6-.7,9.2-2l2,5.2c-3.1,1.7-7.1,2.6-12.1,2.6s-9.4-1.7-12.4-5-4.5-8-4.5-14.1,1.4-10.5,4.2-13.9c2.8-3.3,6.6-5,11.4-5s8.6,1.6,11.1,4.8,3.7,7.8,3.5,13.9h0ZM332.4,64.6c0-6.9-2.4-10.4-7.2-10.4s-4.5,1-5.8,3.1c-1.5,2.2-2.2,5.4-2.1,9.6l15.1-2.3h0ZM365.2,49.2l-1.6,6c-1.2-.4-2.5-.6-3.8-.6s-2.9.3-3.9.9v30.9h-8.3v-34.6c4-1.9,9.9-2.8,17.6-2.6h0ZM391.6,75.9c0,3.1-1.2,5.7-3.6,7.9-2.4,2.2-5.5,3.3-9.4,3.3s-7.5-.9-10.1-2.6l2.2-5.3c1.8,1.4,4,2.1,6.9,2.1s3-.5,4.1-1.5,1.6-2.2,1.6-3.7-.4-2.7-1.2-3.6-2.2-1.7-4.1-2.4c-5.6-2.1-8.3-5.5-8.3-10.2s1.1-5.5,3.2-7.5,4.9-3.1,8.4-3.1,6.9.9,9.5,2.6l-2,4.8c-1.7-1.4-3.6-2-5.8-2s-2.9.5-3.8,1.4-1.4,2.1-1.4,3.4c0,2.4,1.8,4.3,5.4,5.8,5.8,2.4,8.7,5.9,8.7,10.8h0l-.3-.2h0ZM407.8,39.4c0,1.1-.4,2.1-1.3,2.9s-2,1.2-3.2,1.2-2.3-.4-3.2-1.2c-.9-.8-1.3-1.8-1.3-2.9s.4-2.1,1.3-2.9,2-1.2,3.2-1.2,2.3.4,3.2,1.2c.9.8,1.3,1.8,1.3,2.9ZM407.3,86.4h-8.3v-36.6h8.3v36.6ZM444.9,84.4c-3.2,1.8-7.4,2.6-12.7,2.6s-9.6-1.6-12.5-4.9c-3-3.3-4.5-7.8-4.5-13.6s1.5-10.6,4.5-14c2.9-3.4,6.7-5,11.5-5s4,.2,5.5.7v-14.8h8.3v49h0ZM436.6,80.9v-26.3c-1.1-.3-2.3-.5-3.7-.5-6.4,0-9.6,4.6-9.6,13.9s3,13.7,9,13.7,3.4-.3,4.3-.8h0ZM480.1,84.4c-3.3,1.8-7.7,2.6-13.2,2.6-9.9,0-14.9-3.7-14.9-11.1s2-7.8,6-10c3.2-1.7,7.9-2.9,14.4-3.5v-2c0-4-2.4-6-7.3-6s-6.1.7-9.2,2.2l-1.9-4.7c3.8-1.9,8-2.8,12.5-2.8,9,0,13.5,4.2,13.5,12.6v22.6h.1ZM472.3,81.4v-15.1c-4.3.5-7.4,1.4-9.2,2.5-2.3,1.4-3.4,3.7-3.4,6.8,0,4.5,2.6,6.8,7.7,6.8s3.6-.3,4.9-1h0ZM517.3,84.4c-3.2,1.8-7.4,2.6-12.7,2.6s-9.6-1.6-12.5-4.9c-3-3.3-4.5-7.8-4.5-13.6s1.5-10.6,4.5-14c2.9-3.4,6.7-5,11.5-5s4,.2,5.5.7v-14.8h8.3v49h0ZM509,80.9v-26.3c-1.1-.3-2.3-.5-3.7-.5-6.4,0-9.6,4.6-9.6,13.9s3,13.7,9,13.7,3.4-.3,4.3-.8h0ZM181.9,35.5h8.8v39.3c0,4.3,2.3,6.5,7,6.5s4.2-.4,6-1.1v-44.7h8.8v48.5c-4,1.9-9,2.8-15.2,2.8s-9.4-1.2-12-3.6c-2.3-2-3.4-4.8-3.4-8.3v-39.4h0Z"/>
  <path class="cls-2" d="M661.7-1v218.8"/>
</svg>
