<?xml version="1.0" encoding="UTF-8"?>
<svg id="imagina" data-name="Capa 2" xmlns="http://www.w3.org/2000/svg" version="1.1" viewBox="0 0 453.1 81.6">
  <defs>
    <style>
      .cls-1 {
        fill: white;
        stroke-width: 0px;
      }

      .cls-2 {
        fill: none;
        stroke: white;
        stroke-miterlimit: 10;
        stroke-width: .6px;
      }
    </style>
  </defs>
  <g id="Layer_1" data-name="Layer 1">
    <g>
      <g>
        <path class="cls-1" d="M368.5,38h.9v-6.7h-.9v-.4h3.2v.4h-1.2v6.7h1.3c1.2,0,1.5-.6,1.5-1.7v-.4h.3v2.4h-5.1v-.3h0Z"/>
        <path class="cls-1" d="M377.8,37.3c-.2.7-.8,1.2-1.7,1.2s-1.5-.3-1.5-1.2.6-1.3,2.3-1.7l.8-.2v-.8c0-.9-.4-1.3-1.1-1.3s-.8.2-1,.4c.3,0,.6.3.6.7s-.2.7-.7.7-.7-.3-.7-.7c0-.8.9-1.5,2.1-1.5s1.9.6,1.9,1.6v3c0,.3.1.5.4.5s.5-.3.5-1.3h.3c0,1.2-.3,1.8-1.1,1.8s-1.1-.3-1.1-1.2h0ZM377.7,36.1v-.4l-.6.2c-1,.3-1.3.7-1.3,1.2s.4.8.8.8c.7,0,1.2-.6,1.2-1.8h0Z"/>
        <path class="cls-1" d="M383.2,38.4v-.3h.8v-4.7h-.8v-.3c1.3,0,1.6,0,1.8-.2h.1v5.2h.8v.3h-2.8ZM384.5,31.6c-.6,0-.8-.5-.8-.7s.1-.7.8-.7.8.5.8.7-.2.7-.8.7Z"/>
        <path class="cls-1" d="M389.5,38.4h-2.7v-.3h.8v-4.7h-.8v-.3c1.1,0,1.5,0,1.6-.2h.1v1.6c.1-.9.8-1.6,1.8-1.6s1.9.6,1.9,2.1v3h.8v.3h-2.7v-.3h.8v-2.9c0-1.2-.5-1.7-1.2-1.7s-1.2.6-1.2,1.9v2.7h.8v.3h0Z"/>
        <path class="cls-1" d="M393.7,38.4v-.3h.8v-4.7h-.8v-.3h.9c0-2.2,1.1-2.8,2.1-2.8s1.4.4,1.4,1.2-.2.7-.7.7-.7-.3-.7-.6.3-.7.7-.7c-.1-.1-.4-.2-.6-.2-.5,0-1.1.2-1.1,1.7v.8h1.5v.3h-1.5v4.7h1.1v.3h-3,0Z"/>
        <path class="cls-1" d="M400.8,37.3c-.2.7-.8,1.2-1.7,1.2s-1.5-.3-1.5-1.2.6-1.3,2.3-1.7l.8-.2v-.8c0-.9-.4-1.3-1.1-1.3s-.8.2-1,.4c.3,0,.6.3.6.7s-.2.7-.7.7-.7-.3-.7-.7c0-.8.9-1.5,2.1-1.5s1.9.6,1.9,1.6v3c0,.3.1.5.4.5s.5-.3.5-1.3h.3c0,1.2-.3,1.8-1.1,1.8s-1.1-.3-1.1-1.2h0ZM400.7,36.1v-.4l-.6.2c-1,.3-1.3.7-1.3,1.2s.4.8.8.8c.7,0,1.2-.6,1.2-1.8h0Z"/>
        <path class="cls-1" d="M406.2,38.4h-2.7v-.3h.8v-4.7h-.8v-.3c1.1,0,1.5,0,1.6-.2h.1v1.6c.1-.9.8-1.6,1.8-1.6s1.9.6,1.9,2.1v3h.8v.3h-2.7v-.3h.8v-2.9c0-1.2-.5-1.7-1.2-1.7s-1.2.6-1.2,1.9v2.7h.8v.3h0Z"/>
        <path class="cls-1" d="M413,38.5c-1.4,0-2.4-1-2.4-2.8s1.1-2.8,2.5-2.8,1.8.6,1.8,1.6-.2.7-.7.7-.7-.3-.7-.7.3-.7.8-.7c-.2-.4-.6-.5-1.1-.5-1.1,0-1.4,1-1.4,2.5s.4,2.4,1.4,2.4,1.3-.4,1.5-1.4h.3c-.2,1.1-.9,1.8-2,1.8Z"/>
        <path class="cls-1" d="M415.7,38.4v-.3h.8v-4.7h-.8v-.3c1.3,0,1.6,0,1.8-.2h.1v5.2h.8v.3h-2.8ZM417,31.6c-.6,0-.8-.5-.8-.7s.1-.7.8-.7.8.5.8.7-.2.7-.8.7Z"/>
        <path class="cls-1" d="M422.5,37.3c-.2.7-.8,1.2-1.7,1.2s-1.5-.3-1.5-1.2.6-1.3,2.3-1.7l.8-.2v-.8c0-.9-.4-1.3-1.1-1.3s-.8.2-1,.4c.3,0,.6.3.6.7s-.2.7-.7.7-.7-.3-.7-.7c0-.8.9-1.5,2.1-1.5s1.9.6,1.9,1.6v3c0,.3.1.5.4.5s.5-.3.5-1.3h.3c0,1.2-.3,1.8-1.1,1.8s-1.1-.3-1.1-1.2h0ZM422.4,36.1v-.4l-.6.2c-1,.3-1.3.7-1.3,1.2s.4.8.8.8c.7,0,1.2-.6,1.2-1.8h0Z"/>
        <path class="cls-1" d="M427.5,40c0-.5.3-.8.7-.8s.6.3.6.7-.2.7-.8.7c.1.2.3.2.5.2.5,0,.8-.5,1.4-2v-.3c.1,0-2-5.1-2-5.1h-.8v-.3h2.8v.3h-1l1.5,3.6,1.3-3.6h-.8v-.3h2v.3h-.7l-1.9,5.2c-.7,1.9-1,2.6-1.9,2.6s-1.1-.4-1.1-1.2h0Z"/>
        <path class="cls-1" d="M371.7,47.6c-.2.7-.8,1.2-1.7,1.2s-1.5-.3-1.5-1.2.6-1.3,2.3-1.7l.8-.2v-.8c0-.9-.4-1.3-1.1-1.3s-.8.2-1,.4c.3,0,.6.3.6.7s-.2.7-.7.7-.7-.3-.7-.7c0-.8.9-1.5,2.1-1.5s1.9.6,1.9,1.6v3c0,.3.1.5.4.5s.5-.3.5-1.3h.3c0,1.2-.3,1.8-1.1,1.8s-1.1-.3-1.1-1.2h0ZM371.6,46.5v-.4l-.6.2c-1,.3-1.3.7-1.3,1.2s.4.8.8.8c.7,0,1.2-.6,1.2-1.8h0Z"/>
        <path class="cls-1" d="M378.5,47.7c-.3.9-.9,1.2-1.6,1.2-1.2,0-2.3-1.1-2.3-2.8,0-1.8,1.3-2.8,2.4-2.8s1.2.3,1.5.9c0-.6,0-1.5,0-2.1v-1h-.9v-.3c1.3,0,1.6,0,1.8-.1h.1v7.8h.8v.3c-.7,0-1.2,0-1.6.2h-.1v-1.3h0ZM378.3,46.4v-.5c0-1.4-.4-2.2-1.2-2.2s-1.4.9-1.4,2.4c0,1.5.3,2.4,1.3,2.4s1.3-.5,1.3-2h0Z"/>
        <path class="cls-1" d="M383.6,48.9c-1.4,0-2.5-1-2.5-2.8s1.2-2.8,2.5-2.8,2.6,1,2.6,2.8-1.3,2.8-2.6,2.8ZM383.6,48.5c1,0,1.4-.9,1.4-2.4s-.4-2.5-1.4-2.5-1.4.9-1.4,2.5.3,2.4,1.4,2.4Z"/>
        <path class="cls-1" d="M387,48.4h.8v-7.3h-.8v-.3c1.4,0,1.6,0,1.8-.1h.1v7.8h.8v.3h-2.8v-.3Z"/>
        <path class="cls-1" d="M390.5,46.1c0-1.8,1.1-2.8,2.4-2.8s2.2,1.1,2.2,2.4,0,.2,0,.3h-3.5c0,1.7.4,2.5,1.5,2.5s1.4-.6,1.6-1.4h.3c-.2,1.1-1,1.8-2,1.8s-2.5-1-2.5-2.8h0ZM391.7,45.6h2.3c0-1.2-.2-2-1.1-2s-1.2.6-1.2,2h0Z"/>
        <path class="cls-1" d="M396.1,46.9h.4c0,.7.3,1.6,1.7,1.6s1.1-.3,1.1-.9-.6-.9-1.4-1c-.9-.2-1.7-.5-1.7-1.7s.6-1.6,1.6-1.6.9.1,1.2.4l.4-.4h.1v1.9h-.4c0-.9-.4-1.5-1.4-1.5s-1,.3-1,.9.7.8,1.4,1c.8.2,1.7.5,1.7,1.8s-.7,1.6-1.7,1.6-1.1-.2-1.5-.4l-.5.4h-.1v-2h0Z"/>
        <path class="cls-1" d="M403.3,48.9c-1.4,0-2.4-1-2.4-2.8s1.1-2.8,2.5-2.8,1.8.6,1.8,1.6-.2.7-.7.7-.7-.3-.7-.7.3-.7.8-.7c-.2-.4-.6-.5-1.1-.5-1.1,0-1.4,1-1.4,2.5s.4,2.4,1.4,2.4,1.3-.4,1.5-1.4h.3c-.2,1.1-.9,1.8-2,1.8Z"/>
        <path class="cls-1" d="M406.1,46.1c0-1.8,1.1-2.8,2.4-2.8s2.2,1.1,2.2,2.4,0,.2,0,.3h-3.5c0,1.7.4,2.5,1.5,2.5s1.4-.6,1.6-1.4h.3c-.2,1.1-1,1.8-2,1.8s-2.5-1-2.5-2.8h0ZM407.3,45.6h2.3c0-1.2-.2-2-1.1-2s-1.2.6-1.2,2h0Z"/>
        <path class="cls-1" d="M414.4,48.8h-2.7v-.3h.8v-4.7h-.8v-.3c1.1,0,1.5,0,1.6-.2h.1v1.6c.1-.9.8-1.6,1.8-1.6s1.9.6,1.9,2.1v3h.8v.3h-2.7v-.3h.8v-2.9c0-1.2-.5-1.7-1.2-1.7s-1.2.6-1.2,1.9v2.7h.8v.3h0Z"/>
        <path class="cls-1" d="M421.1,48.9c-1.4,0-2.4-1-2.4-2.8s1.1-2.8,2.5-2.8,1.8.6,1.8,1.6-.2.7-.7.7-.7-.3-.7-.7.3-.7.8-.7c-.2-.4-.6-.5-1.1-.5-1.1,0-1.4,1-1.4,2.5s.4,2.4,1.4,2.4,1.3-.4,1.5-1.4h.3c-.2,1.1-.9,1.8-2,1.8Z"/>
        <path class="cls-1" d="M423.8,48.8v-.3h.8v-4.7h-.8v-.3c1.3,0,1.6,0,1.8-.2h.1v5.2h.8v.3h-2.8ZM425.1,42c-.6,0-.8-.5-.8-.7s.1-.7.8-.7.8.5.8.7-.2.7-.8.7Z"/>
        <path class="cls-1" d="M430.5,47.6c-.2.7-.8,1.2-1.7,1.2s-1.5-.3-1.5-1.2.6-1.3,2.3-1.7l.8-.2v-.8c0-.9-.4-1.3-1.1-1.3s-.8.2-1,.4c.3,0,.6.3.6.7s-.2.7-.7.7-.7-.3-.7-.7c0-.8.9-1.5,2.1-1.5s1.9.6,1.9,1.6v3c0,.3.1.5.4.5s.5-.3.5-1.3h.3c0,1.2-.3,1.8-1.1,1.8s-1.1-.3-1.1-1.2h0ZM430.5,46.5v-.4l-.6.2c-1,.3-1.3.7-1.3,1.2s.4.8.8.8c.7,0,1.2-.6,1.2-1.8h0Z"/>
        <path class="cls-1" d="M436,46.9h.4c0,.7.3,1.6,1.7,1.6s1.1-.3,1.1-.9-.6-.9-1.4-1c-.9-.2-1.7-.5-1.7-1.7s.6-1.6,1.6-1.6.9.1,1.2.4l.4-.4h.1v1.9h-.4c0-.9-.4-1.5-1.4-1.5s-1,.3-1,.9.7.8,1.4,1c.8.2,1.7.5,1.7,1.8s-.7,1.6-1.7,1.6-1.1-.2-1.5-.4l-.5.4h-.1v-2h0Z"/>
        <path class="cls-1" d="M443.4,48.9c-1.4,0-2.5-1-2.5-2.8s1.2-2.8,2.5-2.8,2.6,1,2.6,2.8-1.3,2.8-2.6,2.8ZM443.4,48.5c1,0,1.4-.9,1.4-2.4s-.4-2.5-1.4-2.5-1.4.9-1.4,2.5.3,2.4,1.4,2.4Z"/>
        <path class="cls-1" d="M449.6,48.8h-2.7v-.3h.8v-4.7h-.8v-.3c1.1,0,1.5,0,1.6-.2h.1v1.6c.1-.9.8-1.6,1.8-1.6s1.9.6,1.9,2.1v3h.8v.3h-2.7v-.3h.8v-2.9c0-1.2-.5-1.7-1.2-1.7s-1.2.6-1.2,1.9v2.7h.8v.3h0Z"/>
        <path class="cls-1" d="M371.2,59.2h-2.7v-.3h.8v-4.7h-.8v-.3c1.1,0,1.5,0,1.6-.2h.1v1.6c.1-.9.8-1.6,1.8-1.6s1.9.6,1.9,2.1v3h.8v.3h-2.7v-.3h.8v-2.9c0-1.2-.5-1.7-1.2-1.7s-1.2.6-1.2,1.9v2.7h.8v.3h0Z"/>
        <path class="cls-1" d="M379.6,57.7c-.1.9-.6,1.5-1.7,1.5s-1.8-.6-1.8-2.1v-3h-.9v-.3c1.3,0,1.7,0,1.9-.2h.1v3.4c0,1.2.4,1.7,1.1,1.7s1.1-.7,1.1-1.9v-2.7h-1.3v-.3c1.7,0,2.1,0,2.3-.2h.1v5.2h.8v.3c-.9,0-1.2,0-1.6.2h-.1v-1.6h0Z"/>
        <path class="cls-1" d="M382,56.4c0-1.8,1.1-2.8,2.4-2.8s2.2,1.1,2.2,2.4,0,.2,0,.3h-3.5c0,1.7.4,2.5,1.5,2.5s1.4-.6,1.6-1.4h.3c-.2,1.1-1,1.8-2,1.8s-2.5-1-2.5-2.8h0ZM383.2,56h2.3c0-1.2-.2-2-1.1-2s-1.2.6-1.2,2h0Z"/>
        <path class="cls-1" d="M387.6,57.3h.4c0,.7.3,1.6,1.7,1.6s1.1-.3,1.1-.9-.6-.9-1.4-1c-.9-.2-1.7-.5-1.7-1.7s.6-1.6,1.6-1.6.9.1,1.2.4l.4-.4h.1v1.9h-.4c0-.9-.4-1.5-1.4-1.5s-1,.3-1,.9.7.8,1.4,1c.8.2,1.7.5,1.7,1.8s-.7,1.6-1.7,1.6-1.1-.2-1.5-.4l-.5.4h-.1v-2h0Z"/>
        <path class="cls-1" d="M392.8,57.9v-3.8h-1v-.2c1.2,0,1.8-1.1,1.8-2h.3v1.9h1.7v.3h-1.6v3.8c0,.7.2.9.6.9s.8-.5.8-1.6h.3c0,1.2-.2,2-1.4,2s-1.4-.3-1.4-1.4h0Z"/>
        <path class="cls-1" d="M399.6,59.2h-3.2v-.3h.8v-4.7h-.8v-.3c1.3,0,1.4,0,1.6-.2h.1v1.7c.1-.8.6-1.7,1.5-1.7s1.2.5,1.2,1.2-.3.8-.7.8-.7-.3-.7-.7.3-.7.7-.7c-.1-.1-.3-.2-.5-.2-.9,0-1.2,1.3-1.2,2.7v2.1h1.3v.3Z"/>
        <path class="cls-1" d="M404,59.3c-1.4,0-2.5-1-2.5-2.8s1.2-2.8,2.5-2.8,2.6,1,2.6,2.8-1.3,2.8-2.6,2.8ZM404,58.9c1,0,1.4-.9,1.4-2.4s-.4-2.5-1.4-2.5-1.4.9-1.4,2.5.3,2.4,1.4,2.4Z"/>
        <path class="cls-1" d="M412.7,59.3c-1.4,0-2.4-1-2.4-2.8s1.1-2.8,2.5-2.8,1.8.6,1.8,1.6-.2.7-.7.7-.7-.3-.7-.7.3-.7.8-.7c-.2-.4-.6-.5-1.1-.5-1.1,0-1.4,1-1.4,2.5s.4,2.4,1.4,2.4,1.3-.4,1.5-1.4h.3c-.2,1.1-.9,1.8-2,1.8Z"/>
        <path class="cls-1" d="M415.5,56.4c0-1.8,1.1-2.8,2.4-2.8s2.2,1.1,2.2,2.4,0,.2,0,.3h-3.5c0,1.7.4,2.5,1.5,2.5s1.4-.6,1.6-1.4h.3c-.2,1.1-1,1.8-2,1.8s-2.5-1-2.5-2.8h0ZM416.7,56h2.3c0-1.2-.2-2-1.1-2s-1.2.6-1.2,2h0Z"/>
        <path class="cls-1" d="M423.7,59.2h-2.7v-.3h.8v-4.7h-.8v-.3c1.1,0,1.5,0,1.6-.2h.1v1.6c.1-.9.8-1.6,1.8-1.6s1.9.6,1.9,2.1v3h.8v.3h-2.7v-.3h.8v-2.9c0-1.2-.5-1.7-1.2-1.7s-1.2.6-1.2,1.9v2.7h.8v.3h0Z"/>
        <path class="cls-1" d="M428.5,57.9v-3.8h-1v-.2c1.2,0,1.8-1.1,1.8-2h.3v1.9h1.7v.3h-1.6v3.8c0,.7.2.9.6.9s.8-.5.8-1.6h.3c0,1.2-.2,2-1.4,2s-1.4-.3-1.4-1.4h0Z"/>
        <path class="cls-1" d="M435.2,59.2h-3.2v-.3h.8v-4.7h-.8v-.3c1.3,0,1.4,0,1.6-.2h.1v1.7c.1-.8.6-1.7,1.5-1.7s1.2.5,1.2,1.2-.3.8-.7.8-.7-.3-.7-.7.3-.7.7-.7c-.1-.1-.3-.2-.5-.2-.9,0-1.2,1.3-1.2,2.7v2.1h1.3v.3Z"/>
        <path class="cls-1" d="M439.7,59.3c-1.4,0-2.5-1-2.5-2.8s1.2-2.8,2.5-2.8,2.6,1,2.6,2.8-1.3,2.8-2.6,2.8ZM439.7,58.9c1,0,1.4-.9,1.4-2.4s-.4-2.5-1.4-2.5-1.4.9-1.4,2.5.3,2.4,1.4,2.4Z"/>
      </g>
      <g>
        <path class="cls-1" d="M41,61.4c-9,5.9-18.4,5.5-18.4,5.5,0,0-.3-1.2-.2-3.3.1-2.1,1.2-1.5,2-3.1.3-.6.5-1,1-2.4,0,0-.5-10-.7-14.1,0-2.3-.5-6-1-9.7-.3-2.2-1-3.9-1.3-6-.4-3-1-6.4-1-6.4-.4,1-.9,4.5-1.4,8.5-.2,1.9-.5,4-.8,5.8-.5,4-1.8,14.8-2,15.4-.3.9-.3-.2-.3-.2,0,0,.7-11.3,1-16.2.1-2.4.3-5.1.6-7.6.2-1.9.5-3.8.9-5.4,0,0,1.3-3.9,1.7-4s1.9,2.5,2.4,4.7c1.1,5.1,1.8,5.8,2.7,11.1.8,5.1,1.6,9.3,1.7,10,.4,2.5.2,10.4-.5,13.5-.1.9-.2,1.2-.8,1.7-1.3,1.3-2.2,2.9-2.2,3.9s-.2,1,0,1.6c0,0,1.7,2.6,11.7-3.3,0,0,3.1-1.6,3.1-5.2V20.1s-9.9-3.3-17.4-3.3-17.1,3.3-17.1,3.3v36.1c0,2.2.3,6.4,3.5,7.8,0,0-8.5-2.9-8.5-7.9V17s12.9-2.4,22-2.4,22.3,2.4,22.3,2.4v39.2c0,3.4-3.3,5.2-3.3,5.2h0Z"/>
        <g>
          <path class="cls-1" d="M163.7,31c-.9.5-2.1.8-3.6.8s-2.7-.5-3.6-1.4-1.3-2.2-1.3-3.9.4-3,1.3-4c.8-1,1.9-1.4,3.3-1.4s1.1,0,1.6.2v-4.2h2.4v14h0ZM161.3,30v-7.5c-.3,0-.7-.1-1.1-.1-1.8,0-2.8,1.3-2.8,4s.9,3.9,2.6,3.9,1,0,1.2-.2Z"/>
          <path class="cls-1" d="M174.5,26.3l-6.4.9c.2,1.9,1.1,2.9,2.9,2.9s1.9-.2,2.6-.6l.6,1.5c-.9.5-2,.7-3.4.7s-2.7-.5-3.5-1.4-1.3-2.3-1.3-4,.4-3,1.2-4c.8-1,1.9-1.4,3.3-1.4s2.4.5,3.2,1.4c.7.9,1.1,2.2,1,4h0ZM172.2,25.4c0-2-.7-3-2.1-3s-1.3.3-1.7.9c-.4.6-.6,1.5-.6,2.8l4.3-.7h0Z"/>
        </g>
        <g>
          <path class="cls-1" d="M55.7,59.4h-3.7v-22.9h3.7s0,22.9,0,22.9Z"/>
          <path class="cls-1" d="M72.8,51.3c0,2.5-.6,4.5-1.7,6-1.2,1.6-2.9,2.4-5.1,2.4s-3.9-.8-5.1-2.4c-1.1-1.5-1.7-3.5-1.7-6s.6-4.6,1.7-6.1c1.2-1.6,2.9-2.4,5.1-2.4s3.9.8,5.1,2.4c1.1,1.5,1.7,3.5,1.7,6.1ZM69.1,51.2c0-4.1-1-6.1-3.1-6.1s-3.1,2-3.1,6.1,1,6,3.1,6,3.1-2,3.1-6Z"/>
          <path class="cls-1" d="M85.5,54.7c0,1.4-.5,2.5-1.6,3.5s-2.5,1.5-4.2,1.5-3.4-.4-4.5-1.2l1-2.4c.8.6,1.8.9,3.1.9s1.4-.2,1.8-.7c.5-.4.7-1,.7-1.7s-.2-1.2-.6-1.6c-.4-.4-1-.8-1.8-1.1-2.5-1-3.7-2.5-3.7-4.6s.5-2.5,1.4-3.4,2.2-1.4,3.8-1.4,3.1.4,4.2,1.2l-.9,2.2c-.8-.6-1.6-.9-2.6-.9s-1.3.2-1.7.6c-.4.4-.6.9-.6,1.5,0,1.1.8,1.9,2.4,2.6,2.6,1,3.9,2.7,3.9,4.8h0Z"/>
          <path class="cls-1" d="M112.8,59.4h-4.3l-1.8-5.8h-7.3l-1.8,5.8h-3.8l7.5-22.7h4l7.5,22.7h0ZM106.1,51.2l-2.3-8c-.3-1.1-.5-2-.6-2.7h0c-.1.6-.3,1.5-.6,2.7l-2.4,8s6.1,0,6.1,0Z"/>
          <path class="cls-1" d="M128,59.4h-3.7v-11.6c0-1.8-1-2.7-2.9-2.7s-1.8.2-2.6.5v13.9h-3.7v-15.5c1.7-.8,3.8-1.2,6.4-1.2s4,.5,5.1,1.5c.9.8,1.4,2,1.4,3.5v11.6h0Z"/>
          <path class="cls-1" d="M144.7,58.6c-1.4.8-3.3,1.2-5.7,1.2s-4.3-.7-5.6-2.2c-1.3-1.5-2-3.5-2-6.1s.7-4.7,2-6.3c1.3-1.5,3-2.2,5.2-2.2s1.8,0,2.5.3v-6.6h3.7v21.9h0ZM141,57v-11.8c-.5-.1-1-.2-1.6-.2-2.9,0-4.3,2.1-4.3,6.2s1.4,6.1,4,6.1,1.5-.1,1.9-.4h0Z"/>
          <path class="cls-1" d="M161.6,51.2l-10,1.5c.3,3,1.8,4.5,4.5,4.5s3-.3,4.1-.9l.9,2.3c-1.4.8-3.2,1.2-5.4,1.2s-4.2-.7-5.6-2.2c-1.4-1.5-2-3.6-2-6.3s.6-4.7,1.9-6.2c1.2-1.5,2.9-2.2,5.1-2.2s3.9.7,5,2.1c1.1,1.4,1.7,3.5,1.6,6.2h0ZM158.1,49.7c0-3.1-1.1-4.6-3.2-4.6s-2,.5-2.6,1.4c-.7,1-1,2.4-.9,4.3l6.8-1h0Z"/>
          <path class="cls-1" d="M174.3,54.7c0,1.4-.5,2.5-1.6,3.5s-2.5,1.5-4.2,1.5-3.4-.4-4.5-1.2l1-2.4c.8.6,1.8.9,3.1.9s1.4-.2,1.8-.7c.5-.4.7-1,.7-1.7s-.2-1.2-.5-1.6-1-.8-1.9-1.1c-2.5-1-3.7-2.5-3.7-4.6s.5-2.5,1.4-3.4,2.2-1.4,3.8-1.4,3.1.4,4.2,1.2l-.9,2.2c-.8-.6-1.6-.9-2.6-.9s-1.3.2-1.7.6-.6.9-.6,1.5c0,1.1.8,1.9,2.4,2.6,2.6,1,3.9,2.7,3.9,4.8h0Z"/>
        </g>
        <g>
          <path class="cls-1" d="M71.5,31.6h-2.4v-7.4c0-1.2-.6-1.7-1.9-1.7s-1.1.1-1.6.3v8.9h-2.4v-9.9c1.1-.5,2.4-.8,4.1-.8s2.5.3,3.2,1c.6.5.9,1.3.9,2.2v7.4h0Z"/>
          <path class="cls-1" d="M76.6,18.2c0,.3-.1.6-.4.8-.2.2-.6.3-.9.3s-.7-.1-.9-.3-.4-.5-.4-.8.1-.6.4-.8.6-.4.9-.4.7.1.9.3.4.5.4.8ZM76.5,31.6h-2.4v-10.4h2.4v10.4Z"/>
          <path class="cls-1" d="M87.2,21.2l-3.3,10.4h-2.2l-3.4-10.4h2.5l1.8,6.7c.1.5.2,1,.2,1.4h0c0-.4.2-.9.3-1.4l1.9-6.7h2.2Z"/>
          <path class="cls-1" d="M97.1,26.3l-6.4.9c.2,1.9,1.1,2.9,2.8,2.9s1.9-.2,2.6-.6l.6,1.5c-.9.5-2,.7-3.4.7s-2.7-.5-3.5-1.4c-.9-.9-1.3-2.3-1.3-4s.4-3,1.2-4c.8-1,1.9-1.4,3.3-1.4s2.4.5,3.2,1.4,1.1,2.2,1,4h0ZM94.9,25.4c0-2-.7-3-2.1-3s-1.3.3-1.7.9c-.4.6-.6,1.5-.6,2.8,0,0,4.3-.7,4.3-.7Z"/>
          <path class="cls-1" d="M104.3,21l-.5,1.7c-.3-.1-.7-.2-1.1-.2s-.8,0-1.1.2v8.8h-2.4v-9.9c1.2-.6,2.8-.8,5-.7Z"/>
          <path class="cls-1" d="M111.8,28.6c0,.9-.3,1.6-1,2.2s-1.6.9-2.7.9-2.2-.2-2.9-.8l.6-1.5c.5.4,1.2.6,2,.6s.9-.1,1.2-.4c.3-.3.4-.6.4-1s-.1-.8-.3-1c-.2-.2-.6-.5-1.2-.7-1.6-.6-2.4-1.6-2.4-2.9s.3-1.6.9-2.1,1.4-.9,2.4-.9,2,.2,2.7.7l-.6,1.4c-.5-.4-1-.6-1.7-.6s-.8.1-1.1.4c-.3.3-.4.6-.4,1,0,.7.5,1.2,1.6,1.6,1.7.7,2.5,1.7,2.5,3.1h0Z"/>
          <path class="cls-1" d="M116.4,18.2c0,.3-.1.6-.4.8-.2.2-.6.3-.9.3s-.7-.1-.9-.3-.4-.5-.4-.8.1-.6.4-.8.6-.4.9-.4.7.1.9.3.4.5.4.8ZM116.3,31.6h-2.4v-10.4h2.4v10.4Z"/>
          <path class="cls-1" d="M127,31.1c-.9.5-2.1.8-3.6.8s-2.7-.5-3.6-1.4-1.3-2.2-1.3-3.9.4-3,1.3-4c.8-1,1.9-1.4,3.3-1.4s1.1,0,1.6.2v-4.2h2.4v14ZM124.7,30.1v-7.5c-.3,0-.7-.1-1.1-.1-1.8,0-2.8,1.3-2.8,4s.9,3.9,2.6,3.9,1,0,1.2-.2Z"/>
          <path class="cls-1" d="M137.1,31.1c-.9.5-2.2.8-3.8.8-2.8,0-4.3-1.1-4.3-3.2s.6-2.2,1.7-2.8c.9-.5,2.3-.8,4.1-1v-.6c0-1.1-.7-1.7-2.1-1.7s-1.7.2-2.6.6l-.5-1.4c1.1-.5,2.3-.8,3.6-.8,2.6,0,3.9,1.2,3.9,3.6v6.5h0ZM134.9,30.2v-4.3c-1.2.2-2.1.4-2.6.7-.6.4-1,1-1,1.9,0,1.3.7,1.9,2.2,1.9s1-.1,1.4-.3h0Z"/>
          <path class="cls-1" d="M147.7,31.1c-.9.5-2.1.8-3.6.8s-2.7-.5-3.6-1.4-1.3-2.2-1.3-3.9.4-3,1.3-4c.8-1,1.9-1.4,3.3-1.4s1.1,0,1.6.2v-4.2h2.4v14ZM145.4,30.1v-7.5c-.3,0-.7-.1-1-.1-1.8,0-2.8,1.3-2.8,4s.9,3.9,2.6,3.9,1,0,1.2-.2h0Z"/>
        </g>
        <path class="cls-1" d="M52,17.1h2.5v11.2c0,1.2.7,1.9,2,1.9s1.2-.1,1.7-.3v-12.8h2.5v13.9c-1.1.5-2.6.8-4.3.8s-2.7-.3-3.4-1c-.6-.6-1-1.4-1-2.4v-11.3h0Z"/>
      </g>
      <g>
        <path class="cls-1" d="M290.1,60.1c-7.5,0-13.7-6.1-13.7-13.7s6.1-13.7,13.7-13.7,13.7,6.1,13.7,13.7-6.1,13.7-13.7,13.7ZM290.1,40.4c-3.3,0-6,2.7-6,6s2.7,6,6,6,6-2.7,6-6-2.7-6-6-6Z"/>
        <path class="cls-1" d="M294.3,62.7c0,2.4-1.5,4.7-3.9,5.6-2.4.9-5,.1-6.6-1.7l-7.4,2.7c3.2,5.7,10.3,8.5,16.6,6.1s9.9-9,8.6-15.5l-7.4,2.7h0Z"/>
        <path class="cls-1" d="M202.2,24.4c0-2.5,2.1-4.4,4.6-4.4s4.6,1.9,4.6,4.4-2.1,4.4-4.6,4.4-4.6-2-4.6-4.4Z"/>
        <rect class="cls-1" x="203.2" y="33.4" width="7.3" height="26.1"/>
        <path class="cls-1" d="M304.3,24.4c0-2.5,2.1-4.4,4.6-4.4s4.6,1.9,4.6,4.4-2.1,4.4-4.6,4.4-4.6-2-4.6-4.4Z"/>
        <rect class="cls-1" x="305.3" y="34" width="7.3" height="26.1"/>
        <path class="cls-1" d="M267.6,33.4h7.3v26.1h-7.3v-3.7c-1.7,2.7-5.1,4.4-8.6,4.4-7.2,0-12.6-5.6-12.6-13.7s5.2-13.7,12.7-13.7,6.7,1.5,8.4,4.1v-3.5h0ZM267.4,46.4c0-4-3.2-6.9-6.8-6.9s-6.6,3.1-6.6,6.9,2.8,6.9,6.7,6.9,6.8-3.1,6.8-6.9h0Z"/>
        <path class="cls-1" d="M352.9,33.4h7.3v26.1h-7.3v-3.7c-1.7,2.7-5.1,4.4-8.6,4.4-7.2,0-12.6-5.6-12.6-13.7s5.2-13.7,12.7-13.7,6.7,1.5,8.4,4.1v-3.5h0ZM352.7,46.4c0-4-3.2-6.9-6.8-6.9s-6.6,3.1-6.6,6.9,2.9,6.9,6.7,6.9,6.8-3.1,6.8-6.9h0Z"/>
        <path class="cls-1" d="M235.2,32.7c-2.7,0-6.8,1.3-8.7,5.1-1.6-3.3-4.5-5.1-8.4-5.1s-4.5.9-6,2.8v5.8c1-1.2,2.5-1.7,4-1.7,2.5,0,4.6,1.8,4.6,5.9v14h7.3v-12.8c0-4.9,2-7.1,5.1-7,2.6,0,4.7,1.7,4.7,5.8v14.1h7.4v-14.3c0-7.8-3.4-12.5-9.9-12.5h0Z"/>
        <path class="cls-1" d="M320.2,32.7c-1.8,0-4.3.8-6.1,2.4v6c1.2-1.1,2.7-1.5,4.1-1.5,2.5,0,5,1.8,5,5.9v13.9h7.3v-14.3c0-7.8-3.5-12.5-10.3-12.5h0Z"/>
      </g>
      <line class="cls-2" x1="188.9" y1="6.5" x2="188.9" y2="76.3"/>
    </g>
  </g>
</svg>
